<svg xmlns="http://www.w3.org/2000/svg" xmlns:graphite="https://graphite.art" viewBox="0 0 522 606" width="522" height="606"><defs></defs><g transform="matrix(1,0,0,1,-28.730654011,6.051617742)">
<g>
	<g transform="matrix(9.674128606,0,0,9.776851085,-0.291731806,3.727704127)">
		<path d="M4,44 C4,44.351070404052734 4.184080123901367,44.676761627197266 4.485350131988525,44.857421875 C4.485350131988525,44.857421875 29.485349655151367,59.857421875 29.485349655151367,59.857421875 C29.511899948120117,59.873348236083984 29.541500091552734,59.880001068115234 29.56903076171875,59.89324951171875 C29.597959518432617,59.907291412353516 29.62590980529785,59.919368743896484 29.656309127807617,59.930599212646484 C29.767879486083984,59.9718017578125 29.8826904296875,60 30,60 C30.1173095703125,60 30.232120513916016,59.9718017578125 30.343690872192383,59.930599212646484 C30.37409019470215,59.919368743896484 30.402040481567383,59.90727996826172 30.43096923828125,59.89324951171875 C30.458499908447266,59.880008697509766 30.488100051879883,59.873348236083984 30.514650344848633,59.857421875 C30.514650344848633,59.857421875 55.5146484375,44.857421875 55.5146484375,44.857421875 C55.815921783447266,44.676761627197266 56,44.351070404052734 56,44 C56,44 56,16 56,16 C56,15.9681396484375 55.990840911865234,15.93822956085205 55.987850189208984,15.906920433044434 C55.98516082763672,15.877750396728516 55.981990814208984,15.850099563598633 55.976680755615234,15.821040153503418 C55.955440521240234,15.705439567565918 55.919429779052734,15.594599723815918 55.86071014404297,15.494560241699219 C55.85900115966797,15.491629600524902 55.85918045043945,15.488269805908203 55.8574104309082,15.485340118408203 C55.85210037231445,15.476490020751953 55.84294128417969,15.472029685974121 55.8373908996582,15.463430404663086 C55.77976989746094,15.373590469360352 55.7064094543457,15.295639991760254 55.62194061279297,15.22758960723877 C55.60076141357422,15.210619926452637 55.581661224365234,15.193110466003418 55.55937957763672,15.178030014038086 C55.54351043701172,15.167229652404785 55.5312385559082,15.152520179748535 55.51464080810547,15.142569541931152 C55.51464080810547,15.142569541931152 30.51464080810547,0.14257000386714935 30.51464080810547,0.14257000386714935 C30.1972599029541,-0.047860000282526016 29.802730560302734,-0.047860000282526016 29.485340118408203,0.14257000386714935 C29.485340118408203,0.14257000386714935 4.485340118408203,15.142569541931152 4.485340118408203,15.142569541931152 C4.469170093536377,15.152270317077637 4.4572601318359375,15.166620254516602 4.441760063171387,15.177120208740234 C4.418320178985596,15.192930221557617 4.398240089416504,15.2112398147583 4.376150131225586,15.229120254516602 C4.292590141296387,15.296870231628418 4.2199602127075195,15.374019622802734 4.162829875946045,15.463129997253418 C4.157209873199463,15.4718599319458 4.147940158843994,15.476369857788086 4.1425700187683105,15.485349655151367 C4.1407999992370605,15.488280296325684 4.140979766845703,15.491640090942383 4.139269828796387,15.494569778442383 C4.080550193786621,15.594610214233398 4.044539928436279,15.705450057983398 4.0233001708984375,15.821049690246582 C4.0179901123046875,15.850099563598633 4.014820098876953,15.877750396728516 4.012129783630371,15.906929969787598 C4.009160041809082,15.93822956085205 4,15.9681396484375 4,16 C4,16 4,44 4,44 C4,44 4,44 4,44 ZM6,17.766239166259766 C6,17.766239166259766 29,31.56623077392578 29,31.56623077392578 C29,31.56623077392578 29,57.233951568603516 29,57.233951568603516 C29,57.233951568603516 6,43.433589935302734 6,43.433589935302734 C6,43.433589935302734 6,17.766239166259766 6,17.766239166259766 C6,17.766239166259766 6,17.766239166259766 6,17.766239166259766 ZM31,57.233951568603516 C31,57.233951568603516 31,31.566219329833984 31,31.566219329833984 C31,31.566219329833984 54,17.7662296295166 54,17.7662296295166 C54,17.7662296295166 54,43.433589935302734 54,43.433589935302734 C54,43.433589935302734 31,57.233951568603516 31,57.233951568603516 C31,57.233951568603516 31,57.233951568603516 31,57.233951568603516 ZM30,2.166019916534424 C30,2.166019916534424 53.056148529052734,16.00012969970703 53.056148529052734,16.00012969970703 C53.056148529052734,16.00012969970703 30,29.833980560302734 30,29.833980560302734 C30,29.833980560302734 6.943850040435791,16.000120162963867 6.943850040435791,16.000120162963867 C6.943850040435791,16.000120162963867 30,2.166019916534424 30,2.166019916534424 C30,2.166019916534424 30,2.166019916534424 30,2.166019916534424 Z" fill="none" stroke-width="2" stroke="#ffffff" stroke-opacity="0.376"/>
	</g>
</g></g></svg>